<svg xmlns="http://www.w3.org/2000/svg" viewBox="0 0 1100 1800">
<style>
  @import url('https://fonts.googleapis.com/css2?family=JetBrains+Mono:wght@400;500;600;700&amp;display=Noto Sans SC:wght@400;500;700&amp;display=swap');
  text { font-family: 'JetBrains Mono', 'Noto Sans SC', 'PingFang SC', sans-serif; }
</style>
<defs>
  <pattern id="grid" width="40" height="40" patternUnits="userSpaceOnUse">
    <path d="M 40 0 L 0 0 0 40" fill="none" stroke="#1e293b" stroke-width="0.5"/>
  </pattern>
  <marker id="arrow-green" markerWidth="10" markerHeight="7" refX="9" refY="3.5" orient="auto">
    <polygon points="0 0, 10 3.5, 0 7" fill="#34d399"/>
  </marker>
  <marker id="arrow-gray" markerWidth="10" markerHeight="7" refX="9" refY="3.5" orient="auto">
    <polygon points="0 0, 10 3.5, 0 7" fill="#64748b"/>
  </marker>
  <marker id="arrow-amber" markerWidth="10" markerHeight="7" refX="9" refY="3.5" orient="auto">
    <polygon points="0 0, 10 3.5, 0 7" fill="#fbbf24"/>
  </marker>
</defs>

<!-- Background -->
<rect width="100%" height="100%" fill="#0f172a"/>
<rect width="100%" height="100%" fill="url(#grid)"/>

<!-- Title -->
<text x="550" y="40" fill="#22d3ee" font-size="18" font-weight="700" text-anchor="middle">fengyun-publish Pipeline — 预期流程架构（设计蓝图）</text>
<text x="550" y="60" fill="#94a3b8" font-size="11" text-anchor="middle">L0→L7 全流程 · 9 步 · 预期耗时 30-50 min</text>

<!-- ==================== STEP 1: 选题 ==================== -->
<rect x="30" y="80" width="1040" height="150" rx="12" fill="none" stroke="#34d399" stroke-width="1" stroke-dasharray="8,4"/>
<text x="50" y="100" fill="#34d399" font-size="11" font-weight="600">Step 1 · 选题（ITI 数据驱动）</text>

<!-- I-1 广搜 -->
<rect x="50" y="110" width="240" height="55" rx="6" fill="#0f172a"/>
<rect x="50" y="110" width="240" height="55" rx="6" fill="rgba(6,78,59,0.4)" stroke="#34d399" stroke-width="1.5"/>
<text x="170" y="132" fill="white" font-size="11" font-weight="600" text-anchor="middle">ITI I-1 广搜</text>
<text x="170" y="148" fill="#94a3b8" font-size="9" text-anchor="middle">6 信源: aihot + we-mp-rss</text>
<text x="170" y="158" fill="#94a3b8" font-size="9" text-anchor="middle">+ trendradar + arxiv + smol + WebSearch</text>

<!-- T 选题 -->
<rect x="330" y="110" width="180" height="55" rx="6" fill="#0f172a"/>
<rect x="330" y="110" width="180" height="55" rx="6" fill="rgba(6,78,59,0.4)" stroke="#34d399" stroke-width="1.5"/>
<text x="420" y="132" fill="white" font-size="11" font-weight="600" text-anchor="middle">T 选题排序</text>
<text x="420" y="148" fill="#94a3b8" font-size="9" text-anchor="middle">topic_recommender</text>
<text x="420" y="158" fill="#94a3b8" font-size="9" text-anchor="middle">PHASE1 burst_rate</text>

<!-- 事件去重 -->
<rect x="550" y="110" width="160" height="55" rx="6" fill="#0f172a"/>
<rect x="550" y="110" width="160" height="55" rx="6" fill="rgba(6,78,59,0.4)" stroke="#34d399" stroke-width="1.5"/>
<text x="630" y="132" fill="white" font-size="11" font-weight="600" text-anchor="middle">事件去重</text>
<text x="630" y="148" fill="#94a3b8" font-size="9" text-anchor="middle">event_dedup 7天</text>

<!-- 北极星 -->
<rect x="750" y="110" width="200" height="55" rx="6" fill="#0f172a"/>
<rect x="750" y="110" width="200" height="55" rx="6" fill="rgba(59,130,246,0.3)" stroke="#60a5fa" stroke-width="1.5"/>
<text x="850" y="132" fill="white" font-size="11" font-weight="600" text-anchor="middle">北极星填空</text>
<text x="850" y="148" fill="#94a3b8" font-size="9" text-anchor="middle">BLOCKING · 读者感受___</text>

<!-- Arrows Step 1 -->
<line x1="290" y1="137" x2="330" y2="137" stroke="#34d399" stroke-width="1.5" marker-end="url(#arrow-green)"/>
<line x1="510" y1="137" x2="550" y2="137" stroke="#34d399" stroke-width="1.5" marker-end="url(#arrow-green)"/>
<line x1="710" y1="137" x2="750" y2="137" stroke="#34d399" stroke-width="1.5" marker-end="url(#arrow-green)"/>

<!-- ==================== STEP 1.5: Dogfood ==================== -->
<rect x="30" y="250" width="1040" height="120" rx="12" fill="none" stroke="#22d3ee" stroke-width="1" stroke-dasharray="8,4"/>
<text x="50" y="270" fill="#22d3ee" font-size="11" font-weight="600">Step 1.5 · Dogfood Gate（试稿开头验证）</text>

<rect x="50" y="280" width="200" height="55" rx="6" fill="#0f172a"/>
<rect x="50" y="280" width="200" height="55" rx="6" fill="rgba(8,51,68,0.4)" stroke="#22d3ee" stroke-width="1.5"/>
<text x="150" y="302" fill="white" font-size="11" font-weight="600" text-anchor="middle">fengyun-writer</text>
<text x="150" y="318" fill="#94a3b8" font-size="9" text-anchor="middle">试稿 200 字开头</text>

<rect x="290" y="280" width="220" height="55" rx="6" fill="#0f172a"/>
<rect x="290" y="280" width="220" height="55" rx="6" fill="rgba(8,51,68,0.4)" stroke="#22d3ee" stroke-width="1.5"/>
<text x="400" y="302" fill="white" font-size="11" font-weight="600" text-anchor="middle">opening_signal 3 关</text>
<text x="400" y="318" fill="#94a3b8" font-size="9" text-anchor="middle">物理约束 + 4 维信号 + 去重</text>

<rect x="550" y="280" width="200" height="55" rx="6" fill="#0f172a"/>
<rect x="550" y="280" width="200" height="55" rx="6" fill="rgba(8,51,68,0.4)" stroke="#22d3ee" stroke-width="1.5"/>
<text x="650" y="302" fill="white" font-size="11" font-weight="600" text-anchor="middle">content-judge D-1</text>
<text x="650" y="318" fill="#94a3b8" font-size="9" text-anchor="middle">voice 5 分量 · confidence≥0.7</text>

<rect x="790" y="280" width="160" height="55" rx="6" fill="#0f172a"/>
<rect x="790" y="280" width="160" height="55" rx="6" fill="rgba(6,78,59,0.4)" stroke="#34d399" stroke-width="1.5"/>
<text x="870" y="302" fill="white" font-size="11" font-weight="600" text-anchor="middle">✓ 通过</text>
<text x="870" y="318" fill="#94a3b8" font-size="9" text-anchor="middle">或重试(上限 3 次)</text>

<line x1="250" y1="307" x2="290" y2="307" stroke="#22d3ee" stroke-width="1.5" marker-end="url(#arrow-green)"/>
<line x1="510" y1="307" x2="550" y2="307" stroke="#22d3ee" stroke-width="1.5" marker-end="url(#arrow-green)"/>
<line x1="750" y1="307" x2="790" y2="307" stroke="#22d3ee" stroke-width="1.5" marker-end="url(#arrow-green)"/>

<!-- Down arrow -->
<line x1="550" y1="370" x2="550" y2="400" stroke="#34d399" stroke-width="1.5" marker-end="url(#arrow-green)"/>

<!-- ==================== STEP 2: 调研 ==================== -->
<rect x="30" y="400" width="1040" height="110" rx="12" fill="none" stroke="#a78bfa" stroke-width="1" stroke-dasharray="8,4"/>
<text x="50" y="420" fill="#a78bfa" font-size="11" font-weight="600">Step 2 · ITI I-2 深搜调研</text>

<rect x="50" y="430" width="280" height="55" rx="6" fill="#0f172a"/>
<rect x="50" y="430" width="280" height="55" rx="6" fill="rgba(76,29,149,0.4)" stroke="#a78bfa" stroke-width="1.5"/>
<text x="190" y="452" fill="white" font-size="11" font-weight="600" text-anchor="middle">WebSearch × 4（中英各 2）</text>
<text x="190" y="468" fill="#94a3b8" font-size="9" text-anchor="middle">主线程必跑 · 覆盖 Python 搜不到的源</text>

<rect x="370" y="430" width="200" height="55" rx="6" fill="#0f172a"/>
<rect x="370" y="430" width="200" height="55" rx="6" fill="rgba(76,29,149,0.4)" stroke="#a78bfa" stroke-width="1.5"/>
<text x="470" y="452" fill="white" font-size="11" font-weight="600" text-anchor="middle">WebFetch 核心源</text>
<text x="470" y="468" fill="#94a3b8" font-size="9" text-anchor="middle">safe_webfetch 2-3 URL</text>

<rect x="610" y="430" width="200" height="55" rx="6" fill="#0f172a"/>
<rect x="610" y="430" width="200" height="55" rx="6" fill="rgba(76,29,149,0.4)" stroke="#a78bfa" stroke-width="1.5"/>
<text x="710" y="452" fill="white" font-size="11" font-weight="600" text-anchor="middle">本地工具聚合</text>
<text x="710" y="468" fill="#94a3b8" font-size="9" text-anchor="middle">iti_explore + corpus + arxiv</text>

<rect x="850" y="430" width="180" height="55" rx="6" fill="#0f172a"/>
<rect x="850" y="430" width="180" height="55" rx="6" fill="rgba(76,29,149,0.4)" stroke="#a78bfa" stroke-width="1.5"/>
<text x="940" y="452" fill="white" font-size="11" font-weight="600" text-anchor="middle">→ research.md</text>
<text x="940" y="468" fill="#94a3b8" font-size="9" text-anchor="middle">15-25 条带出处事实</text>

<line x1="330" y1="457" x2="370" y2="457" stroke="#a78bfa" stroke-width="1.5" marker-end="url(#arrow-green)"/>
<line x1="570" y1="457" x2="610" y2="457" stroke="#a78bfa" stroke-width="1.5" marker-end="url(#arrow-green)"/>
<line x1="810" y1="457" x2="850" y2="457" stroke="#a78bfa" stroke-width="1.5" marker-end="url(#arrow-green)"/>

<line x1="550" y1="510" x2="550" y2="540" stroke="#34d399" stroke-width="1.5" marker-end="url(#arrow-green)"/>

<!-- ==================== STEP 3: 写作 ==================== -->
<rect x="30" y="540" width="1040" height="120" rx="12" fill="none" stroke="#34d399" stroke-width="1" stroke-dasharray="8,4"/>
<text x="50" y="560" fill="#34d399" font-size="11" font-weight="600">Step 3 · 写初稿 + 标题/结尾 Harness</text>

<rect x="50" y="570" width="280" height="65" rx="6" fill="#0f172a"/>
<rect x="50" y="570" width="280" height="65" rx="6" fill="rgba(6,78,59,0.4)" stroke="#34d399" stroke-width="1.5"/>
<text x="190" y="592" fill="white" font-size="11" font-weight="600" text-anchor="middle">fengyun-writer 完整稿</text>
<text x="190" y="608" fill="#94a3b8" font-size="9" text-anchor="middle">voice-dna + corpus 沉浸</text>
<text x="190" y="620" fill="#94a3b8" font-size="9" text-anchor="middle">4000-5000 字 · 6 H2 章节</text>

<rect x="380" y="570" width="250" height="65" rx="6" fill="#0f172a"/>
<rect x="380" y="570" width="250" height="65" rx="6" fill="rgba(6,78,59,0.4)" stroke="#34d399" stroke-width="1.5"/>
<text x="505" y="592" fill="white" font-size="11" font-weight="600" text-anchor="middle">Step 3.3 标题 Harness</text>
<text x="505" y="608" fill="#94a3b8" font-size="9" text-anchor="middle">title_signal 6 维 + title_dedup</text>
<text x="505" y="620" fill="#94a3b8" font-size="9" text-anchor="middle">上限 3 次 · PHASE1 钩子公式</text>

<rect x="680" y="570" width="250" height="65" rx="6" fill="#0f172a"/>
<rect x="680" y="570" width="250" height="65" rx="6" fill="rgba(6,78,59,0.4)" stroke="#34d399" stroke-width="1.5"/>
<text x="805" y="592" fill="white" font-size="11" font-weight="600" text-anchor="middle">Step 3.5 结尾 Harness</text>
<text x="805" y="608" fill="#94a3b8" font-size="9" text-anchor="middle">ending_signal 3 关 + ending_dedup</text>
<text x="805" y="620" fill="#94a3b8" font-size="9" text-anchor="middle">上限 3 次 · 末段 ≥150 字</text>

<line x1="330" y1="602" x2="380" y2="602" stroke="#34d399" stroke-width="1.5" marker-end="url(#arrow-green)"/>
<line x1="630" y1="602" x2="680" y2="602" stroke="#34d399" stroke-width="1.5" marker-end="url(#arrow-green)"/>

<line x1="550" y1="660" x2="550" y2="690" stroke="#34d399" stroke-width="1.5" marker-end="url(#arrow-green)"/>

<!-- ==================== STEP 4-5: 质量门控 ==================== -->
<rect x="30" y="690" width="1040" height="120" rx="12" fill="none" stroke="#fb923c" stroke-width="1" stroke-dasharray="8,4"/>
<text x="50" y="710" fill="#fb923c" font-size="11" font-weight="600">Step 4-5 · 质量门控（循环到 0 违规）</text>

<rect x="50" y="720" width="280" height="65" rx="6" fill="#0f172a"/>
<rect x="50" y="720" width="280" height="65" rx="6" fill="rgba(120,53,15,0.3)" stroke="#fbbf24" stroke-width="1.5"/>
<text x="190" y="742" fill="white" font-size="11" font-weight="600" text-anchor="middle">fengyun_lint</text>
<text x="190" y="758" fill="#94a3b8" font-size="9" text-anchor="middle">R0-R18 + R19-R27(huashu)</text>
<text x="190" y="770" fill="#94a3b8" font-size="9" text-anchor="middle">循环到 n_violations == 0</text>

<rect x="380" y="720" width="250" height="65" rx="6" fill="#0f172a"/>
<rect x="380" y="720" width="250" height="65" rx="6" fill="rgba(120,53,15,0.3)" stroke="#fbbf24" stroke-width="1.5"/>
<text x="505" y="742" fill="white" font-size="11" font-weight="600" text-anchor="middle">humanizer-zh</text>
<text x="505" y="758" fill="#94a3b8" font-size="9" text-anchor="middle">24 条 Wikipedia AI 模式</text>
<text x="505" y="770" fill="#94a3b8" font-size="9" text-anchor="middle">去 AI 味 · 重跑 lint 确认</text>

<rect x="680" y="720" width="280" height="65" rx="6" fill="#0f172a"/>
<rect x="680" y="720" width="280" height="65" rx="6" fill="rgba(120,53,15,0.3)" stroke="#fbbf24" stroke-width="1.5"/>
<text x="820" y="742" fill="white" font-size="11" font-weight="600" text-anchor="middle">wangxiaobo-perspective</text>
<text x="820" y="758" fill="#94a3b8" font-size="9" text-anchor="middle">4 心智模型 + 7 启发式</text>
<text x="820" y="770" fill="#94a3b8" font-size="9" text-anchor="middle">翻译腔诊断 · 母语替代</text>

<line x1="330" y1="752" x2="380" y2="752" stroke="#fbbf24" stroke-width="1.5" marker-end="url(#arrow-amber)"/>
<line x1="630" y1="752" x2="680" y2="752" stroke="#fbbf24" stroke-width="1.5" marker-end="url(#arrow-amber)"/>

<line x1="550" y1="810" x2="550" y2="840" stroke="#34d399" stroke-width="1.5" marker-end="url(#arrow-green)"/>

<!-- ==================== STEP 6: 投票 ==================== -->
<rect x="30" y="840" width="1040" height="140" rx="12" fill="none" stroke="#fb7185" stroke-width="1" stroke-dasharray="8,4"/>
<text x="50" y="860" fill="#fb7185" font-size="11" font-weight="600">Step 6 · 三轨 Critic Vote</text>

<rect x="50" y="870" width="280" height="55" rx="6" fill="#0f172a"/>
<rect x="50" y="870" width="280" height="55" rx="6" fill="rgba(136,19,55,0.4)" stroke="#fb7185" stroke-width="1.5"/>
<text x="190" y="892" fill="white" font-size="11" font-weight="600" text-anchor="middle">Track A · score_draft.py</text>
<text x="190" y="908" fill="#94a3b8" font-size="9" text-anchor="middle">read/share/like 综合分 ≥60 通过</text>

<rect x="380" y="870" width="250" height="55" rx="6" fill="#0f172a"/>
<rect x="380" y="870" width="250" height="55" rx="6" fill="rgba(136,19,55,0.4)" stroke="#fb7185" stroke-width="1.5"/>
<text x="505" y="892" fill="white" font-size="11" font-weight="600" text-anchor="middle">Track B · huashu-perspective</text>
<text x="505" y="908" fill="#94a3b8" font-size="9" text-anchor="middle">emotion-judgement binary ship</text>

<rect x="680" y="870" width="280" height="55" rx="6" fill="#0f172a"/>
<rect x="680" y="870" width="280" height="55" rx="6" fill="rgba(136,19,55,0.4)" stroke="#fb7185" stroke-width="1.5"/>
<text x="820" y="892" fill="white" font-size="11" font-weight="600" text-anchor="middle">Track C · content-judge</text>
<text x="820" y="908" fill="#94a3b8" font-size="9" text-anchor="middle">founder voice binary 挂名</text>

<!-- Gate tree 决议 -->
<rect x="350" y="940" width="400" height="30" rx="6" fill="#0f172a"/>
<rect x="350" y="940" width="400" height="30" rx="6" fill="rgba(136,19,55,0.4)" stroke="#fb7185" stroke-width="1.5"/>
<text x="550" y="960" fill="white" font-size="11" font-weight="600" text-anchor="middle">gate_tree → ship / revise(→Step 6.5) / abort</text>

<line x1="330" y1="897" x2="380" y2="897" stroke="#fb7185" stroke-width="1.2"/>
<line x1="630" y1="897" x2="680" y2="897" stroke="#fb7185" stroke-width="1.2"/>
<line x1="550" y1="925" x2="550" y2="940" stroke="#fb7185" stroke-width="1.2" marker-end="url(#arrow-amber)"/>

<!-- Step 6.5 revise loop (side) -->
<rect x="960" y="940" width="100" height="30" rx="6" fill="#0f172a"/>
<rect x="960" y="940" width="100" height="30" rx="6" fill="rgba(30,41,59,0.5)" stroke="#64748b" stroke-width="1" stroke-dasharray="4,4"/>
<text x="1010" y="960" fill="#94a3b8" font-size="9" text-anchor="middle">Step 6.5</text>
<text x="1010" y="970" fill="#64748b" font-size="8" text-anchor="middle">revise loop ×3</text>
<line x1="750" y1="955" x2="960" y2="955" stroke="#64748b" stroke-width="1" stroke-dasharray="4,4" marker-end="url(#arrow-gray)"/>

<line x1="550" y1="970" x2="550" y2="1010" stroke="#34d399" stroke-width="1.5" marker-end="url(#arrow-green)"/>

<!-- ==================== STEP 7: 视觉 ==================== -->
<rect x="30" y="1010" width="1040" height="120" rx="12" fill="none" stroke="#a78bfa" stroke-width="1" stroke-dasharray="8,4"/>
<text x="50" y="1030" fill="#a78bfa" font-size="11" font-weight="600">Step 7 · 视觉（封面 + 内文图）</text>

<rect x="50" y="1040" width="300" height="65" rx="6" fill="#0f172a"/>
<rect x="50" y="1040" width="300" height="65" rx="6" fill="rgba(76,29,149,0.4)" stroke="#a78bfa" stroke-width="1.5"/>
<text x="200" y="1062" fill="white" font-size="11" font-weight="600" text-anchor="middle">Seedream 封面 7 模板</text>
<text x="200" y="1078" fill="#94a3b8" font-size="9" text-anchor="middle">T1_agent → T7_flow_narrative</text>
<text x="200" y="1090" fill="#94a3b8" font-size="9" text-anchor="middle">cover_dedup 7天 + 英文加固 + retry×2</text>

<rect x="400" y="1040" width="280" height="65" rx="6" fill="#0f172a"/>
<rect x="400" y="1040" width="280" height="65" rx="6" fill="rgba(76,29,149,0.4)" stroke="#a78bfa" stroke-width="1.5"/>
<text x="540" y="1062" fill="white" font-size="11" font-weight="600" text-anchor="middle">huashu-image-curator</text>
<text x="540" y="1078" fill="#94a3b8" font-size="9" text-anchor="middle">Mode 2 配图决策 · 一次 LLM call</text>
<text x="540" y="1090" fill="#94a3b8" font-size="9" text-anchor="middle">0-5 张 · style_anchor 一致</text>

<rect x="730" y="1040" width="250" height="65" rx="6" fill="#0f172a"/>
<rect x="730" y="1040" width="250" height="65" rx="6" fill="rgba(76,29,149,0.4)" stroke="#a78bfa" stroke-width="1.5"/>
<text x="855" y="1062" fill="white" font-size="11" font-weight="600" text-anchor="middle">内文图 Seedream 生成</text>
<text x="855" y="1078" fill="#94a3b8" font-size="9" text-anchor="middle">并发出图 · write_metadata</text>
<text x="855" y="1090" fill="#94a3b8" font-size="9" text-anchor="middle">frontmatter image_at_h2_indices</text>

<line x1="350" y1="1072" x2="400" y2="1072" stroke="#a78bfa" stroke-width="1.5" marker-end="url(#arrow-green)"/>
<line x1="680" y1="1072" x2="730" y2="1072" stroke="#a78bfa" stroke-width="1.5" marker-end="url(#arrow-green)"/>

<line x1="550" y1="1130" x2="550" y2="1160" stroke="#34d399" stroke-width="1.5" marker-end="url(#arrow-green)"/>

<!-- ==================== STEP 8: 发布 ==================== -->
<rect x="30" y="1160" width="1040" height="100" rx="12" fill="none" stroke="#22d3ee" stroke-width="1" stroke-dasharray="8,4"/>
<text x="50" y="1180" fill="#22d3ee" font-size="11" font-weight="600">Step 8 · 排版 + 推草稿</text>

<rect x="150" y="1190" width="280" height="50" rx="6" fill="#0f172a"/>
<rect x="150" y="1190" width="280" height="50" rx="6" fill="rgba(8,51,68,0.4)" stroke="#22d3ee" stroke-width="1.5"/>
<text x="290" y="1212" fill="white" font-size="11" font-weight="600" text-anchor="middle">post_fengyun_publish.py</text>
<text x="290" y="1228" fill="#94a3b8" font-size="9" text-anchor="middle">gate.py preflight → huashu 渲染</text>

<rect x="500" y="1190" width="160" height="50" rx="6" fill="#0f172a"/>
<rect x="500" y="1190" width="160" height="50" rx="6" fill="rgba(8,51,68,0.4)" stroke="#22d3ee" stroke-width="1.5"/>
<text x="580" y="1212" fill="white" font-size="11" font-weight="600" text-anchor="middle">HTML 预览</text>
<text x="580" y="1228" fill="#94a3b8" font-size="9" text-anchor="middle">output/html/</text>

<rect x="730" y="1190" width="250" height="50" rx="6" fill="#0f172a"/>
<rect x="730" y="1190" width="250" height="50" rx="6" fill="rgba(6,78,59,0.4)" stroke="#34d399" stroke-width="1.5"/>
<text x="855" y="1212" fill="white" font-size="11" font-weight="600" text-anchor="middle">公众号草稿箱</text>
<text x="855" y="1228" fill="#94a3b8" font-size="9" text-anchor="middle">media_id → 人工审阅 → 发出</text>

<line x1="430" y1="1215" x2="500" y2="1215" stroke="#22d3ee" stroke-width="1.5" marker-end="url(#arrow-green)"/>
<line x1="660" y1="1215" x2="730" y2="1215" stroke="#22d3ee" stroke-width="1.5" marker-end="url(#arrow-green)"/>

<line x1="550" y1="1260" x2="550" y2="1290" stroke="#34d399" stroke-width="1.5" marker-end="url(#arrow-green)"/>

<!-- ==================== STEP 9: 报告 ==================== -->
<rect x="30" y="1290" width="1040" height="80" rx="12" fill="none" stroke="#94a3b8" stroke-width="1" stroke-dasharray="8,4"/>
<text x="50" y="1310" fill="#94a3b8" font-size="11" font-weight="600">Step 9 · Ship 报告</text>

<rect x="200" y="1320" width="300" height="40" rx="6" fill="#0f172a"/>
<rect x="200" y="1320" width="300" height="40" rx="6" fill="rgba(30,41,59,0.5)" stroke="#94a3b8" stroke-width="1.5"/>
<text x="350" y="1345" fill="white" font-size="11" font-weight="600" text-anchor="middle">Ship 报告（print 给用户）</text>

<rect x="580" y="1320" width="300" height="40" rx="6" fill="#0f172a"/>
<rect x="580" y="1320" width="300" height="40" rx="6" fill="rgba(30,41,59,0.5)" stroke="#94a3b8" stroke-width="1.5"/>
<text x="730" y="1345" fill="white" font-size="11" font-weight="600" text-anchor="middle">output/runs/\<slug\>.json</text>

<line x1="500" y1="1340" x2="580" y2="1340" stroke="#94a3b8" stroke-width="1.5" marker-end="url(#arrow-green)"/>

<!-- ==================== Timeline bar ==================== -->
<rect x="150" y="1410" width="800" height="50" rx="8" fill="#0f172a"/>
<rect x="150" y="1410" width="800" height="50" rx="8" fill="rgba(6,78,59,0.2)" stroke="#34d399" stroke-width="1"/>
<text x="550" y="1432" fill="#34d399" font-size="12" font-weight="600" text-anchor="middle">预期耗时: 30-50 min（顺利通过）/ 80-100 min（3 轮改稿 + partial_pass）</text>
<text x="550" y="1450" fill="#94a3b8" font-size="9" text-anchor="middle">Step 1-2: 5-10min | Step 3: 8-15min | Step 4-5: 5-15min | Step 6: 3-6min | Step 7: 3-5min | Step 8-9: 2-3min</text>

<!-- Legend -->
<rect x="30" y="1490" width="1040" height="60" rx="8" fill="rgba(30,41,59,0.3)" stroke="#334155" stroke-width="0.5"/>
<text x="50" y="1510" fill="#94a3b8" font-size="10" font-weight="600">Legend:</text>
<rect x="120" y="1498" width="20" height="12" rx="3" fill="rgba(6,78,59,0.4)" stroke="#34d399" stroke-width="1"/>
<text x="145" y="1508" fill="#94a3b8" font-size="9">正常通过路径</text>
<rect x="260" y="1498" width="20" height="12" rx="3" fill="rgba(120,53,15,0.3)" stroke="#fbbf24" stroke-width="1"/>
<text x="285" y="1508" fill="#94a3b8" font-size="9">质量门控（循环修复）</text>
<rect x="440" y="1498" width="20" height="12" rx="3" fill="rgba(136,19,55,0.4)" stroke="#fb7185" stroke-width="1"/>
<text x="465" y="1508" fill="#94a3b8" font-size="9">投票决策（可能 revise）</text>
<rect x="640" y="1498" width="20" height="12" rx="3" fill="rgba(59,130,246,0.3)" stroke="#60a5fa" stroke-width="1"/>
<text x="665" y="1508" fill="#94a3b8" font-size="9">BLOCKING 门控</text>
<rect x="800" y="1498" width="20" height="12" rx="3" fill="rgba(30,41,59,0.5)" stroke="#64748b" stroke-width="1" stroke-dasharray="4,4"/>
<text x="825" y="1508" fill="#94a3b8" font-size="9">可选/降级路径</text>

</svg>